<svg width="178" height="151" viewBox="0 0 178 151" fill="none" xmlns="http://www.w3.org/2000/svg">
<path d="M0.52538 1.81172C0.52538 36.0803 15.9661 69.1496 44.0037 94.9274C71.865 120.544 110.264 137.335 152.132 142.207C152.363 142.234 152.6 142.236 152.831 142.211C153.063 142.187 153.283 142.138 153.48 142.066C153.677 141.994 153.846 141.901 153.979 141.792C154.111 141.683 154.204 141.561 154.252 141.432C154.3 141.303 154.302 141.17 154.257 141.041C154.213 140.911 154.124 140.788 153.994 140.678C153.865 140.568 153.698 140.474 153.503 140.4C153.308 140.326 153.089 140.275 152.858 140.249C111.971 135.491 74.3966 119.026 47.0552 93.8874C19.3544 68.4187 4.09856 35.7185 4.09856 1.81172C4.09856 1.54651 3.9103 1.29217 3.57525 1.10463C3.2402 0.917093 2.7858 0.811722 2.31197 0.811722C1.83814 0.811722 1.38374 0.917093 1.04869 1.10463C0.713635 1.29217 0.52538 1.54651 0.52538 1.81172V1.81172Z" fill="#3F3D56"/>
<path d="M149.506 130.724L178 142.698L145.229 150.525L149.506 130.724Z" fill="#3F3D56"/>
</svg>
