<svg width="217" height="394" viewBox="0 0 217 394" fill="none" xmlns="http://www.w3.org/2000/svg">
<path d="M199.342 184.039L46.6966 216.214C42.2853 217.139 37.6874 216.276 33.9116 213.815C30.1358 211.354 27.4904 207.495 26.5559 203.086L0.362053 78.8166C-0.562583 74.4053 0.300342 69.8074 2.76151 66.0316C5.22268 62.2558 9.0811 59.6104 13.4903 58.6758L166.136 26.5008C170.547 25.5762 175.145 26.4391 178.921 28.9002C182.697 31.3614 185.342 35.2198 186.277 39.629L212.471 163.898C213.395 168.31 212.532 172.908 210.071 176.683C207.61 180.459 203.752 183.105 199.342 184.039Z" fill="white"/>
<path d="M199.342 184.039L46.6966 216.214C42.2853 217.139 37.6874 216.276 33.9116 213.815C30.1358 211.354 27.4904 207.495 26.5559 203.086L0.362053 78.8166C-0.562583 74.4053 0.300342 69.8074 2.76151 66.0316C5.22268 62.2558 9.0811 59.6104 13.4903 58.6758L166.136 26.5008C170.547 25.5762 175.145 26.4391 178.921 28.9002C182.697 31.3614 185.342 35.2198 186.277 39.629L212.471 163.898C213.395 168.31 212.532 172.908 210.071 176.683C207.61 180.459 203.752 183.105 199.342 184.039ZM13.9028 60.6329C10.0123 61.4575 6.60788 63.7917 4.43626 67.1233C2.26464 70.4549 1.50321 74.5119 2.31904 78.4041L28.5129 202.674C29.3375 206.564 31.6716 209.968 35.0032 212.14C38.3348 214.312 42.3918 215.073 46.2841 214.257L198.93 182.082C202.82 181.258 206.225 178.923 208.396 175.592C210.568 172.26 211.33 168.203 210.514 164.311L184.32 40.0416C183.495 36.1512 181.161 32.7467 177.83 30.5751C174.498 28.4034 170.441 27.642 166.549 28.4579L13.9028 60.6329Z" fill="#3F3D56"/>
<path d="M156.652 67.476L79.6137 83.7143C78.9395 83.8708 78.2311 83.7654 77.6316 83.4196C77.0321 83.0737 76.5863 82.5132 76.3843 81.8513C76.2919 81.5061 76.2709 81.1456 76.3224 80.792C76.3739 80.4384 76.4969 80.099 76.6839 79.7945C76.871 79.49 77.1181 79.2268 77.4102 79.0209C77.7023 78.815 78.0332 78.6709 78.3829 78.5972L156.803 62.0675C159.865 63.7931 158.897 67.0027 156.651 67.4762L156.652 67.476Z" fill="#CCCCCC"/>
<path d="M159.5 80.989L82.4618 97.2274C81.7876 97.3838 81.0792 97.2785 80.4798 96.9326C79.8803 96.5868 79.4345 96.0262 79.2325 95.3643C79.1401 95.0191 79.119 94.6587 79.1705 94.3051C79.222 93.9514 79.3451 93.612 79.5321 93.3075C79.7191 93.003 79.9662 92.7398 80.2583 92.5339C80.5504 92.3281 80.8814 92.1839 81.2311 92.1102L159.651 75.5805C162.713 77.3061 161.746 80.5157 159.499 80.9892L159.5 80.989Z" fill="#CCCCCC"/>
<path d="M67.4296 108.432L43.9182 113.387C43.1504 113.548 42.35 113.398 41.6928 112.97C41.0355 112.542 40.5751 111.87 40.4125 111.102L34.5643 83.357C34.4033 82.5892 34.5534 81.7888 34.9818 81.1316C35.4102 80.4743 36.0819 80.0139 36.8494 79.8513L60.3608 74.8955C61.1286 74.7348 61.9288 74.885 62.586 75.3134C63.2431 75.7418 63.7036 76.4133 63.8665 77.1806L69.7147 104.926C69.8757 105.694 69.7255 106.494 69.2971 107.151C68.8687 107.809 68.1971 108.269 67.4296 108.432V108.432Z" fill="#CCCCCC"/>
<path d="M165.108 108.704L47.5333 133.487C46.8592 133.643 46.1508 133.538 45.5513 133.192C44.9518 132.846 44.506 132.286 44.304 131.624C44.2116 131.279 44.1906 130.918 44.2421 130.565C44.2936 130.211 44.4166 129.872 44.6036 129.567C44.7906 129.263 45.0377 128.999 45.3298 128.794C45.6219 128.588 45.9529 128.444 46.3026 128.37L165.26 103.296C168.322 105.021 167.354 108.231 165.108 108.704V108.704Z" fill="#CCCCCC"/>
<path d="M167.957 122.221L50.3825 147.004C49.7083 147.16 48.9999 147.055 48.4004 146.709C47.801 146.363 47.3551 145.803 47.1531 145.141C47.0608 144.796 47.0397 144.435 47.0912 144.082C47.1427 143.728 47.2657 143.389 47.4527 143.084C47.6398 142.78 47.8869 142.516 48.179 142.311C48.4711 142.105 48.8021 141.961 49.1517 141.887L168.109 116.813C171.171 118.538 170.204 121.748 167.957 122.221Z" fill="#CCCCCC"/>
<path d="M170.805 135.729L53.2298 160.512C52.5557 160.669 51.8473 160.563 51.2478 160.217C50.6483 159.872 50.2026 159.311 50.0006 158.649C49.9082 158.304 49.8871 157.943 49.9386 157.59C49.9901 157.236 50.1131 156.897 50.3001 156.592C50.4872 156.288 50.7343 156.025 51.0264 155.819C51.3185 155.613 51.6495 155.469 51.9992 155.395L170.957 130.321C174.019 132.046 173.051 135.256 170.805 135.729V135.729Z" fill="#CCCCCC"/>
<path d="M173.653 149.245L56.0787 174.028C55.4046 174.185 54.6961 174.079 54.0967 173.733C53.4972 173.388 53.0514 172.827 52.8494 172.165C52.757 171.82 52.736 171.459 52.7875 171.106C52.839 170.752 52.962 170.413 53.149 170.108C53.336 169.804 53.5831 169.541 53.8752 169.335C54.1674 169.129 54.4984 168.985 54.848 168.911L173.806 143.837C176.868 145.562 175.9 148.772 173.653 149.245V149.245Z" fill="#CCCCCC"/>
<path d="M176.501 162.755L58.9264 187.537C58.2522 187.694 57.5438 187.588 56.9443 187.243C56.3449 186.897 55.8991 186.336 55.6971 185.674C55.6047 185.329 55.5836 184.969 55.6351 184.615C55.6866 184.261 55.8097 183.922 55.9967 183.617C56.1837 183.313 56.4308 183.05 56.7229 182.844C57.015 182.638 57.346 182.494 57.6957 182.42L176.653 157.346C179.715 159.072 178.747 162.281 176.501 162.755V162.755Z" fill="#CCCCCC"/>
<path d="M197.255 100.888C196.988 101.372 196.76 101.877 196.572 102.398L148.439 114.342L140.065 105.68L125.34 116.608L138.674 133.384C139.751 134.739 141.238 135.709 142.913 136.146C144.588 136.584 146.36 136.467 147.963 135.812L200.192 114.47C201.909 115.733 203.969 116.444 206.1 116.508C208.231 116.572 210.33 115.986 212.12 114.827C213.909 113.669 215.303 111.993 216.117 110.023C216.931 108.053 217.125 105.881 216.675 103.798C216.224 101.714 215.15 99.8172 213.595 98.359C212.04 96.9009 210.078 95.9506 207.97 95.6347C205.862 95.3188 203.708 95.6523 201.794 96.5906C199.88 97.529 198.297 99.0278 197.255 100.888L197.255 100.888Z" fill="#A0616A"/>
<path d="M32.9587 207.18C34.4593 206.717 35.84 205.93 37.0037 204.875C38.1673 203.82 39.0855 202.523 39.6936 201.075C40.3017 199.627 40.5849 198.064 40.5233 196.494C40.4617 194.925 40.0567 193.388 39.337 191.992L72.4612 99.9251L49.4576 95.8484L24.1309 187.629C21.8661 188.994 20.1805 191.142 19.3935 193.666C18.6066 196.191 18.7729 198.916 19.8611 201.326C20.9492 203.736 22.8835 205.663 25.2975 206.742C27.7115 207.821 30.4374 207.977 32.9587 207.18V207.18Z" fill="#A0616A"/>
<path d="M68.2545 116.268L45.542 107.551C44.8958 107.303 44.3106 106.919 43.8263 106.424C43.3421 105.93 42.9701 105.337 42.7357 104.685C42.5013 104.034 42.4101 103.34 42.4682 102.65C42.5262 101.96 42.7323 101.291 43.0723 100.688L54.9873 79.5626C56.2753 76.2638 58.8187 73.6103 62.06 72.1838C65.3012 70.7574 68.9759 70.6743 72.2783 71.9529C75.5807 73.2314 78.2414 75.7673 79.6771 79.0045C81.1129 82.2417 81.2064 85.916 79.9373 89.2221L74.6818 112.82C74.5311 113.495 74.2366 114.13 73.8183 114.682C73.4 115.233 72.8677 115.688 72.2578 116.016C71.6478 116.343 70.9745 116.535 70.2837 116.578C69.5929 116.622 68.9008 116.516 68.2545 116.268V116.268Z" fill="#91E9E3"/>
<path d="M119.52 380.033L131.78 380.032L137.612 332.744L119.518 332.745L119.52 380.033Z" fill="#A0616A"/>
<path d="M116.392 376.03L140.536 376.029H140.537C142.557 376.029 144.558 376.427 146.425 377.2C148.292 377.974 149.988 379.107 151.417 380.536C152.846 381.964 153.979 383.661 154.752 385.527C155.525 387.394 155.923 389.395 155.923 391.416V391.916L116.393 391.917L116.392 376.03Z" fill="#2F2E41"/>
<path d="M50.5196 380.033L62.7796 380.032L68.6116 332.744L50.5176 332.745L50.5196 380.033Z" fill="#A0616A"/>
<path d="M47.3921 376.03L71.5359 376.029H71.5369C73.5575 376.029 75.5583 376.427 77.425 377.2C79.2918 377.974 80.988 379.107 82.4168 380.536C83.8456 381.964 84.9789 383.661 85.7522 385.527C86.5254 387.394 86.9234 389.395 86.9234 391.416V391.916L47.3929 391.917L47.3921 376.03Z" fill="#2F2E41"/>
<path d="M63.372 361H47.8574C47.2484 361 46.6458 360.876 46.0861 360.637C45.5263 360.397 45.021 360.046 44.6008 359.605C44.1806 359.165 43.8542 358.643 43.6413 358.073C43.4285 357.502 43.3336 356.894 43.3625 356.286L50.7319 197.954L51.1962 197.941L126.115 195.988L140.776 354.411C140.832 355.005 140.77 355.604 140.593 356.174C140.415 356.743 140.127 357.272 139.743 357.729C139.36 358.186 138.889 358.562 138.359 358.836C137.829 359.109 137.25 359.275 136.655 359.322L119.229 360.716C118.134 360.803 117.045 360.487 116.167 359.827C115.289 359.167 114.683 358.21 114.462 357.134L92.1713 244.357C92.1105 244.015 91.9288 243.705 91.6593 243.485C91.3897 243.265 91.0502 243.149 90.7023 243.158H90.6962C90.3472 243.15 90.007 243.269 89.7378 243.491C89.4686 243.713 89.2883 244.025 89.2299 244.369L67.7873 357.369C67.5842 358.391 67.0334 359.312 66.2285 359.974C65.4235 360.635 64.4142 360.998 63.372 361V361Z" fill="#2F2E41"/>
<path d="M91.7917 56.7422C105.356 56.7422 116.353 45.7458 116.353 32.1811C116.353 18.6164 105.356 7.6201 91.7917 7.6201C78.2271 7.6201 67.2307 18.6164 67.2307 32.1811C67.2307 45.7458 78.2271 56.7422 91.7917 56.7422Z" fill="#A0616A"/>
<path d="M83.5561 216.509C71.8498 216.509 59.8259 213.432 49.8581 204.334C49.3277 203.853 48.9182 203.254 48.6628 202.585C48.4075 201.916 48.3135 201.196 48.3886 200.484C49.4555 190.898 54.6308 141.403 51.7163 108.341C51.1475 102.165 52.0218 95.9419 54.2702 90.1621C56.5186 84.3823 60.0795 79.2041 64.6719 75.0362C69.1838 70.8777 74.6005 67.8247 80.4944 66.1181C86.3883 64.4115 92.5982 64.0979 98.634 65.2021H98.6343C98.9402 65.2568 99.2458 65.3144 99.552 65.373C119.216 69.1787 132.878 87.377 131.332 107.704C129.076 137.364 127.054 177.483 130.229 200.172C130.361 201.1 130.199 202.046 129.766 202.878C129.333 203.709 128.65 204.384 127.814 204.809C120.59 208.459 102.488 216.509 83.5561 216.509Z" fill="#91E9E3"/>
<path d="M115.605 118.035C115.029 117.652 114.542 117.149 114.178 116.56C113.814 115.971 113.581 115.311 113.496 114.624L110.503 90.6342C109.554 87.2225 109.995 83.5734 111.732 80.4869C113.468 77.4004 116.358 75.1284 119.767 74.1689C123.176 73.2095 126.826 73.6411 129.917 75.3689C133.009 77.0967 135.289 79.9798 136.258 83.3861L146.114 105.547C146.395 106.18 146.537 106.865 146.529 107.557C146.521 108.25 146.365 108.932 146.07 109.558C145.774 110.184 145.348 110.739 144.819 111.186C144.29 111.632 143.671 111.959 143.004 112.145L119.567 118.667C118.9 118.853 118.201 118.893 117.517 118.784C116.833 118.675 116.181 118.419 115.605 118.035V118.035Z" fill="#91E9E3"/>
<path d="M83.2175 56.3953C80.8928 56.4385 78.5825 56.0205 76.4203 55.1655C75.4689 54.7989 74.4813 54.4976 73.5316 54.1307C65.145 50.8905 59.6204 41.9588 59.4226 32.9702C59.2247 23.9816 63.8796 15.2573 70.7917 9.5078C77.7038 3.75829 86.6567 0.806456 95.6216 0.123856C105.278 -0.611414 116.152 1.83744 121.548 9.87944C122.984 12.0201 123.989 14.6173 123.138 17.2019C122.883 17.9819 122.427 18.6812 121.817 19.2299C119.408 21.3739 117.005 19.7618 114.549 19.6194C111.172 19.4236 108.139 22.1567 107.049 25.3585C105.959 28.5602 106.439 32.0851 107.319 35.3508C107.99 37.3158 108.412 39.3569 108.577 41.4267C108.648 42.4645 108.453 43.5033 108.01 44.4446C107.567 45.3858 106.891 46.1984 106.047 46.8052C103.937 48.0806 101.166 47.3424 99.0546 46.0691C96.9434 44.7958 95.1192 43.0254 92.8388 42.0884C90.5583 41.1514 87.4946 41.3592 86.1673 43.4369C85.7455 44.1929 85.46 45.0172 85.3239 45.8721C84.1339 51.2934 84.4074 50.9741 83.2175 56.3953V56.3953Z" fill="#2F2E41"/>
<path d="M191.662 393.267H1.66235C1.39714 393.267 1.14278 393.162 0.955246 392.974C0.76771 392.787 0.662354 392.532 0.662354 392.267C0.662354 392.002 0.76771 391.747 0.955246 391.56C1.14278 391.372 1.39714 391.267 1.66235 391.267H191.662C191.928 391.267 192.182 391.372 192.369 391.56C192.557 391.747 192.662 392.002 192.662 392.267C192.662 392.532 192.557 392.787 192.369 392.974C192.182 393.162 191.928 393.267 191.662 393.267Z" fill="#CCCCCC"/>
</svg>
