<svg width="250" height="390" viewBox="0 0 250 390" fill="none" xmlns="http://www.w3.org/2000/svg">
<path d="M223.497 183.31L87.44 259.627C83.5065 261.828 78.8608 262.378 74.5221 261.158C70.1834 259.937 66.5059 257.046 64.2965 253.117L2.16634 142.353C-0.0341885 138.419 -0.584582 133.773 0.63588 129.435C1.85634 125.096 4.74801 121.419 8.67647 119.209L144.734 42.8918C148.667 40.6912 153.313 40.1408 157.652 41.3613C161.991 42.5817 165.668 45.4734 167.877 49.4019L230.008 160.167C232.208 164.1 232.759 168.746 231.538 173.085C230.318 177.423 227.426 181.101 223.497 183.31V183.31Z" fill="white"/>
<path d="M223.497 183.31L87.44 259.627C83.5065 261.828 78.8608 262.378 74.5221 261.158C70.1834 259.937 66.5059 257.046 64.2965 253.117L2.16634 142.353C-0.0341885 138.419 -0.584582 133.773 0.63588 129.435C1.85634 125.096 4.74801 121.419 8.67647 119.209L144.734 42.8918C148.667 40.6912 153.313 40.1408 157.652 41.3613C161.991 42.5817 165.668 45.4734 167.877 49.4019L230.008 160.167C232.208 164.1 232.759 168.746 231.538 173.085C230.318 177.423 227.426 181.101 223.497 183.31V183.31ZM9.65492 120.953C6.18865 122.903 3.6372 126.148 2.56032 129.976C1.48344 133.804 1.96905 137.903 3.91066 141.374L66.0408 252.139C67.9903 255.605 71.2351 258.157 75.0634 259.234C78.8917 260.31 82.9908 259.825 86.4615 257.883L222.519 181.566C225.985 179.616 228.537 176.372 229.614 172.543C230.691 168.715 230.205 164.616 228.263 161.145L166.133 50.3803C164.184 46.914 160.939 44.3626 157.111 43.2857C153.282 42.2088 149.183 42.6945 145.712 44.6361L9.65492 120.953Z" fill="#3F3D56"/>
<path d="M147.927 84.8288L79.2606 123.345C78.664 123.696 77.9564 123.807 77.281 123.656C76.6056 123.505 76.0127 123.104 75.6221 122.532C75.4308 122.23 75.303 121.893 75.2465 121.54C75.19 121.187 75.2059 120.826 75.2934 120.48C75.3809 120.133 75.5381 119.808 75.7553 119.525C75.9726 119.241 76.2454 119.004 76.557 118.83L146.455 79.6223C149.893 80.3541 149.928 83.7062 147.926 84.8293L147.927 84.8288Z" fill="#CCCCCC"/>
<path d="M154.683 96.8734L86.0164 135.39C85.4198 135.741 84.7123 135.852 84.0369 135.701C83.3614 135.55 82.7686 135.148 82.378 134.577C82.1867 134.275 82.0588 133.937 82.0023 133.584C81.9458 133.232 81.9618 132.871 82.0493 132.524C82.1368 132.178 82.2939 131.853 82.5112 131.569C82.7284 131.285 83.0012 131.049 83.3129 130.874L153.211 91.6668C156.649 92.3986 156.684 95.7508 154.682 96.8738L154.683 96.8734Z" fill="#CCCCCC"/>
<path d="M75.0192 150.574L54.0629 162.329C53.3782 162.712 52.5696 162.808 51.8143 162.595C51.0591 162.383 50.419 161.879 50.0345 161.196L36.1629 136.465C35.7797 135.781 35.6839 134.972 35.8963 134.217C36.1088 133.462 36.6122 132.822 37.296 132.437L58.2524 120.682C58.9371 120.299 59.7457 120.204 60.5008 120.416C61.256 120.629 61.896 121.132 62.2807 121.815L76.1524 146.546C76.5355 147.23 76.6313 148.039 76.4189 148.794C76.2065 149.549 75.7031 150.189 75.0192 150.574L75.0192 150.574Z" fill="#CCCCCC"/>
<path d="M168.316 121.647L63.5186 180.43C62.922 180.781 62.2145 180.892 61.5391 180.741C60.8637 180.59 60.2707 180.188 59.8802 179.617C59.6888 179.315 59.5611 178.977 59.5045 178.624C59.448 178.272 59.464 177.911 59.5515 177.564C59.639 177.218 59.7961 176.893 60.0134 176.609C60.2306 176.325 60.5034 176.089 60.8151 175.914L166.845 116.44C170.283 117.171 170.319 120.524 168.316 121.647Z" fill="#CCCCCC"/>
<path d="M175.074 133.695L70.2767 192.478C69.6801 192.829 68.9726 192.94 68.2971 192.789C67.6217 192.638 67.0288 192.236 66.6383 191.665C66.447 191.363 66.3191 191.025 66.2626 190.673C66.2061 190.32 66.222 189.959 66.3095 189.613C66.397 189.266 66.5542 188.941 66.7714 188.657C66.9887 188.374 67.2615 188.137 67.5731 187.962L173.603 128.488C177.041 129.22 177.077 132.572 175.074 133.695V133.695Z" fill="#CCCCCC"/>
<path d="M181.828 145.735L77.0304 204.518C76.4338 204.869 75.7262 204.98 75.0508 204.829C74.3754 204.678 73.7825 204.276 73.3919 203.705C73.2006 203.403 73.0728 203.066 73.0163 202.713C72.9597 202.36 72.9757 201.999 73.0632 201.653C73.1507 201.306 73.3079 200.981 73.5251 200.698C73.7424 200.414 74.0151 200.177 74.3268 200.002L180.357 140.528C183.795 141.26 183.83 144.612 181.828 145.735V145.735Z" fill="#CCCCCC"/>
<path d="M188.586 157.782L83.7879 216.565C83.1913 216.916 82.4838 217.027 81.8084 216.876C81.133 216.725 80.5401 216.324 80.1495 215.752C79.9582 215.45 79.8303 215.113 79.7738 214.76C79.7173 214.407 79.7333 214.046 79.8208 213.7C79.9082 213.353 80.0654 213.028 80.2827 212.745C80.4999 212.461 80.7727 212.224 81.0844 212.05L187.115 152.575C190.552 153.307 190.588 156.659 188.586 157.782H188.586Z" fill="#CCCCCC"/>
<path d="M195.339 169.823L90.5418 228.606C89.9452 228.957 89.2377 229.068 88.5623 228.917C87.8869 228.766 87.294 228.365 86.9034 227.793C86.7121 227.492 86.5842 227.154 86.5277 226.801C86.4712 226.448 86.4872 226.088 86.5747 225.741C86.6622 225.395 86.8193 225.07 87.0366 224.786C87.2538 224.502 87.5266 224.266 87.8383 224.091L193.869 164.616C197.306 165.348 197.342 168.7 195.339 169.823V169.823Z" fill="#CCCCCC"/>
<path d="M177.057 214.946C177.627 213.688 177.915 212.319 177.899 210.937C177.884 209.555 177.565 208.193 176.967 206.948C176.368 205.702 175.503 204.603 174.434 203.727C173.364 202.852 172.116 202.222 170.776 201.881L167.926 168.407L154.22 179.22L159.028 209.35C158.605 211.638 159.035 214.002 160.239 215.993C161.442 217.985 163.334 219.466 165.556 220.156C167.778 220.846 170.177 220.696 172.296 219.736C174.416 218.776 176.11 217.072 177.057 214.946V214.946Z" fill="#FFB8B8"/>
<path d="M168.185 198.375L156.802 199.733C156.224 199.802 155.638 199.751 155.08 199.582C154.522 199.414 154.005 199.133 153.562 198.755C153.118 198.378 152.757 197.914 152.501 197.39C152.245 196.867 152.1 196.297 152.075 195.715L150.415 157.313L128.837 98.3667C127.973 96.5377 127.578 94.5216 127.69 92.5016C127.802 90.4815 128.417 88.5214 129.479 86.7992C130.008 85.967 130.613 85.186 131.287 84.4661C132.615 83.0362 134.269 81.9484 136.108 81.2954C137.947 80.6424 139.916 80.4435 141.849 80.7157C143.84 80.9807 145.739 81.7168 147.388 82.8628C149.037 84.0089 150.389 85.5319 151.332 87.3053L165.404 116.792C171.289 129.125 174.068 142.711 173.498 156.365L171.911 194.353C171.87 195.347 171.479 196.295 170.808 197.029C170.136 197.763 169.228 198.237 168.241 198.368L168.185 198.375Z" fill="#91E9E3"/>
<path d="M208.611 364.345L198.057 368.977L175.167 330.474L190.743 323.637L208.611 364.345Z" fill="#FFB8B8"/>
<path d="M215.794 373.393L181.764 388.331L181.575 387.9C180.811 386.161 180.398 384.288 180.358 382.389C180.318 380.49 180.653 378.601 181.343 376.831C182.033 375.062 183.065 373.445 184.38 372.074C185.695 370.703 187.267 369.604 189.006 368.841L189.007 368.84L209.791 359.717L215.794 373.393Z" fill="#2F2E41"/>
<path d="M66.9223 377.158H55.3963L49.9133 332.701L66.9243 332.702L66.9223 377.158Z" fill="#FFB8B8"/>
<path d="M69.8614 388.331L32.6975 388.329V387.859C32.6975 385.96 33.0716 384.079 33.7986 382.324C34.5255 380.569 35.591 378.974 36.9343 377.631C38.2775 376.288 39.8722 375.222 41.6272 374.495C43.3822 373.768 45.2632 373.394 47.1628 373.394H47.1638L69.8621 373.395L69.8614 388.331Z" fill="#2F2E41"/>
<path d="M179.137 361.96L114.931 218.677C114.815 218.408 114.619 218.182 114.369 218.03C114.119 217.878 113.828 217.808 113.536 217.829C113.244 217.849 112.966 217.96 112.74 218.146C112.514 218.331 112.352 218.583 112.275 218.865L73.1543 357.259C72.8963 358.228 72.3008 359.073 71.4751 359.641C70.6494 360.209 69.6478 360.464 68.6509 360.36L47.2854 358.223C46.1846 358.107 45.1722 357.567 44.4631 356.717C43.7539 355.868 43.4039 354.775 43.4872 353.671C50.2829 269.147 60.9958 189.374 93.0888 137.152L93.2596 136.873L141.803 146.392L206.611 352.766C206.931 353.829 206.823 354.975 206.309 355.959C205.794 356.943 204.915 357.686 203.86 358.03L184.317 364.312C183.316 364.637 182.229 364.577 181.271 364.141C180.312 363.706 179.551 362.928 179.137 361.96V361.96Z" fill="#2F2E41"/>
<path d="M116.722 63.7546C129.475 63.7546 139.813 53.4166 139.813 40.664C139.813 27.9114 129.475 17.5734 116.722 17.5734C103.97 17.5734 93.6318 27.9114 93.6318 40.664C93.6318 53.4166 103.97 63.7546 116.722 63.7546Z" fill="#FFB8B8"/>
<path d="M90.1055 141.149L89.811 141.088L89.7417 140.796C86.6305 127.661 86.5563 113.326 89.5211 98.1912C91.0249 90.4556 95.2102 83.4988 101.34 78.5461C107.469 73.5933 115.15 70.9623 123.029 71.1165V71.1165C131.578 71.2899 139.737 74.7236 145.838 80.715C151.939 86.7065 155.519 94.8027 155.847 103.347C156.837 129.379 146.198 151.948 146.091 152.173L145.933 152.503L90.1055 141.149Z" fill="#91E9E3"/>
<path d="M28.2056 185.078C29.5729 184.876 30.8791 184.376 32.0325 183.615C33.1858 182.853 34.1581 181.848 34.881 180.67C35.6038 179.492 36.0596 178.17 36.2162 176.797C36.3728 175.424 36.2264 174.033 35.7873 172.722L62.3833 152.197L45.8703 146.531L23.1459 166.891C20.9933 167.775 19.2395 169.417 18.217 171.507C17.1944 173.597 16.9741 175.99 17.5978 178.232C18.2215 180.473 19.6458 182.409 21.6009 183.67C23.556 184.932 25.906 185.433 28.2056 185.078V185.078Z" fill="#FFB8B8"/>
<path d="M42.7323 169.598C41.8664 170.11 40.8461 170.295 39.8555 170.12C38.8649 169.946 37.9695 169.422 37.331 168.645L30.0247 159.812C29.6535 159.363 29.3789 158.842 29.2183 158.282C29.0576 157.722 29.0143 157.135 29.0911 156.558C29.1678 155.981 29.363 155.425 29.6643 154.927C29.9657 154.428 30.3667 153.998 30.8422 153.661L62.2251 131.467L100.091 81.4026C101.16 79.6849 102.641 78.2615 104.4 77.2617C106.159 76.2618 108.14 75.7171 110.163 75.677C111.148 75.6708 112.132 75.7566 113.102 75.9332V75.9332C115.024 76.2748 116.834 77.076 118.379 78.2684C119.924 79.4608 121.158 81.0091 121.975 82.7814C122.831 84.5983 123.241 86.5931 123.17 88.6002C123.1 90.6072 122.552 92.5686 121.572 94.3214L93.5343 139.728L93.4728 139.827L42.7323 169.598Z" fill="#91E9E3"/>
<path d="M120.852 39.2312C119.15 36.4317 115.395 35.6408 112.134 35.9602C108.873 36.2796 105.702 37.4257 102.426 37.4002C93.3295 37.3297 86.3076 26.2425 90.1322 17.9885C93.2688 11.2192 101.102 8.24681 108.189 5.9139C123.047 1.02256 140.114 -3.67715 153.597 4.25378C157.894 6.85594 161.418 10.558 163.805 14.9776C166.192 19.3971 167.356 24.3739 167.177 29.3939C166.874 35.6356 164.483 42.0469 166.505 47.96C168.837 54.7815 176.232 58.4414 183.221 60.2119C195.471 63.3154 208.388 62.8155 220.715 65.5991C233.042 68.3827 245.674 75.774 248.997 87.9668C251.179 95.9756 248.902 104.597 245.13 111.992C241.282 119.536 235.935 126.215 229.415 131.621C222.895 137.026 215.341 141.044 207.214 143.427C199.088 145.811 190.56 146.511 182.153 145.483C173.747 144.456 165.639 141.723 158.325 137.453C143.423 128.751 132.664 114.044 126.249 98.0231C122.612 88.6778 120.052 78.9485 118.617 69.0235C117.181 59.7328 118.4 50.3438 121.002 41.3098C121.125 40.9724 121.175 40.6127 121.149 40.2545C121.123 39.8962 121.022 39.5475 120.852 39.2312Z" fill="#2F2E41"/>
<path d="M204.153 389.681H14.1531C13.8879 389.681 13.6335 389.575 13.446 389.388C13.2584 389.2 13.1531 388.946 13.1531 388.681C13.1531 388.415 13.2584 388.161 13.446 387.974C13.6335 387.786 13.8879 387.681 14.1531 387.681H204.153C204.418 387.681 204.673 387.786 204.86 387.974C205.048 388.161 205.153 388.415 205.153 388.681C205.153 388.946 205.048 389.2 204.86 389.388C204.673 389.575 204.418 389.681 204.153 389.681Z" fill="#CCCCCC"/>
</svg>
